<svg width="81" height="82" viewBox="0 0 81 82" fill="none" xmlns="http://www.w3.org/2000/svg">
<g clip-path="url(#clip0_229_1223)">
<path d="M7.20605 81.1816V67.8061H73.8727V81.1816H7.20605ZM20.5394 54.4306H25.2061L51.2061 28.4321L48.7894 26.0077L46.4561 23.667L20.5394 49.7492V54.4306ZM13.8727 61.1184V46.9069L51.2061 9.53918C51.8172 8.92614 52.5255 8.45242 53.3311 8.11804C54.1366 7.78365 54.9838 7.61646 55.8727 7.61646C56.7616 7.61646 57.6227 7.78365 58.4561 8.11804C59.2894 8.45242 60.0394 8.954 60.7061 9.62278L65.2894 14.3042C65.9561 14.9172 66.4422 15.6417 66.7477 16.4777C67.0533 17.3137 67.2061 18.1775 67.2061 19.0692C67.2061 19.9052 67.0533 20.7272 66.7477 21.5353C66.4422 22.3434 65.9561 23.0819 65.2894 23.7506L28.0394 61.1184H13.8727ZM51.2061 28.4321L48.7894 26.0077L46.4561 23.667L51.2061 28.4321Z" fill="#1E1E1E" fill-opacity="0.43"/>
</g>
<defs>
<clipPath id="clip0_229_1223">
<rect width="80" height="80.2529" fill="white" transform="translate(0.539551 0.928711)"/>
</clipPath>
</defs>
</svg>
