<svg width="26" height="26" viewBox="0 0 26 26" fill="none" xmlns="http://www.w3.org/2000/svg">
<path d="M12.9222 25.9136C12.5889 25.9136 12.2712 25.8511 11.9691 25.7261C11.667 25.6011 11.3909 25.4241 11.1409 25.1949L1.1097 15.1636C0.880529 14.9136 0.703445 14.6376 0.578445 14.3355C0.453445 14.0334 0.390945 13.7157 0.390945 13.3824C0.390945 13.0491 0.453445 12.7261 0.578445 12.4136C0.703445 12.1011 0.880529 11.8303 1.1097 11.6011L11.1409 1.56989C11.3909 1.31989 11.667 1.13759 11.9691 1.02301C12.2712 0.908427 12.5889 0.851135 12.9222 0.851135C13.2555 0.851135 13.5784 0.908427 13.8909 1.02301C14.2034 1.13759 14.4743 1.31989 14.7034 1.56989L24.7347 11.6011C24.9847 11.8303 25.167 12.1011 25.2816 12.4136C25.3962 12.7261 25.4534 13.0491 25.4534 13.3824C25.4534 13.7157 25.3962 14.0334 25.2816 14.3355C25.167 14.6376 24.9847 14.9136 24.7347 15.1636L14.7034 25.1949C14.4743 25.4241 14.2034 25.6011 13.8909 25.7261C13.5784 25.8511 13.2555 25.9136 12.9222 25.9136ZM12.9222 23.4136L22.9534 13.3824L12.9222 3.35114L2.89095 13.3824L12.9222 23.4136ZM11.6722 14.6324H14.1722V7.13239H11.6722V14.6324ZM12.9222 18.3824C13.2764 18.3824 13.5732 18.2626 13.8128 18.023C14.0524 17.7834 14.1722 17.4866 14.1722 17.1324C14.1722 16.7782 14.0524 16.4813 13.8128 16.2418C13.5732 16.0022 13.2764 15.8824 12.9222 15.8824C12.568 15.8824 12.2712 16.0022 12.0316 16.2418C11.792 16.4813 11.6722 16.7782 11.6722 17.1324C11.6722 17.4866 11.792 17.7834 12.0316 18.023C12.2712 18.2626 12.568 18.3824 12.9222 18.3824Z" fill="black"/>
</svg>
