<svg width="25" height="25" viewBox="0 0 25 25" fill="none" xmlns="http://www.w3.org/2000/svg">
<path d="M5.4585 19.1979V19.6979H5.9585H7.3835H7.5906L7.73705 19.5515L17.512 9.77646L17.8656 9.42291L17.512 9.06935L16.0871 7.64435L15.7335 7.2908L15.3799 7.64435L5.60494 17.4194L5.4585 17.5658V17.7729V19.1979ZM19.6399 4.13577L19.6457 4.14212L19.6518 4.14826L21.0268 5.54826L21.036 5.55762L21.0456 5.56648C21.1879 5.69686 21.288 5.84656 21.3516 6.02003C21.4243 6.21851 21.4585 6.41036 21.4585 6.59791C21.4585 6.80594 21.423 6.99986 21.3535 7.18308C21.2892 7.35258 21.1847 7.51461 21.0299 7.66935L8.00139 20.6979H4.4585V17.1553L17.5038 4.13473C17.6603 3.99274 17.8294 3.88555 18.0122 3.80991C18.192 3.7355 18.3811 3.69791 18.5835 3.69791C18.7859 3.69791 18.9813 3.73553 19.1728 3.81214C19.3526 3.88406 19.5069 3.99065 19.6399 4.13577Z" stroke="#616161"/>
</svg>
