<svg width="25" height="25" viewBox="0 0 25 25" fill="none" xmlns="http://www.w3.org/2000/svg">
<path d="M15.0585 18.9745C14.3585 18.9745 13.7669 18.7328 13.2835 18.2495C12.8002 17.7662 12.5585 17.1745 12.5585 16.4745C12.5585 15.7745 12.8002 15.1828 13.2835 14.6995C13.7669 14.2162 14.3585 13.9745 15.0585 13.9745C15.7585 13.9745 16.3502 14.2162 16.8335 14.6995C17.3169 15.1828 17.5585 15.7745 17.5585 16.4745C17.5585 17.1745 17.3169 17.7662 16.8335 18.2495C16.3502 18.7328 15.7585 18.9745 15.0585 18.9745ZM5.55853 22.9745C5.00853 22.9745 4.5377 22.7787 4.14603 22.387C3.75437 21.9953 3.55853 21.5245 3.55853 20.9745V6.97449C3.55853 6.42449 3.75437 5.95365 4.14603 5.56199C4.5377 5.17032 5.00853 4.97449 5.55853 4.97449H6.55853V2.97449H8.55853V4.97449H16.5585V2.97449H18.5585V4.97449H19.5585C20.1085 4.97449 20.5794 5.17032 20.971 5.56199C21.3627 5.95365 21.5585 6.42449 21.5585 6.97449V20.9745C21.5585 21.5245 21.3627 21.9953 20.971 22.387C20.5794 22.7787 20.1085 22.9745 19.5585 22.9745H5.55853ZM5.55853 20.9745H19.5585V10.9745H5.55853V20.9745ZM5.55853 8.97449H19.5585V6.97449H5.55853V8.97449Z" fill="black"/>
</svg>
