<svg width="24" height="25" viewBox="0 0 24 25" fill="none" xmlns="http://www.w3.org/2000/svg">
<g clip-path="url(#clip0_1_63)">
<path d="M0.304886 18.1098V16.5348C0.304886 15.8181 0.657693 15.2348 1.36331 14.7848C2.06892 14.3348 2.99905 14.1098 4.15369 14.1098C4.36216 14.1098 4.56262 14.114 4.75506 14.1223C4.9475 14.1306 5.13192 14.1515 5.30833 14.1848C5.08381 14.5348 4.91543 14.9015 4.80317 15.2848C4.69092 15.6681 4.63479 16.0681 4.63479 16.4848V18.1098H0.304886ZM6.07809 18.1098V16.4848C6.07809 15.9515 6.21841 15.464 6.49905 15.0223C6.77969 14.5806 7.1766 14.1931 7.68977 13.8598C8.20295 13.5265 8.81635 13.2765 9.52998 13.1098C10.2436 12.9431 11.0174 12.8598 11.8513 12.8598C12.7012 12.8598 13.483 12.9431 14.1967 13.1098C14.9103 13.2765 15.5237 13.5265 16.0369 13.8598C16.55 14.1931 16.9429 14.5806 17.2156 15.0223C17.4882 15.464 17.6245 15.9515 17.6245 16.4848V18.1098H6.07809ZM19.0678 18.1098V16.4848C19.0678 16.0515 19.0157 15.6431 18.9114 15.2598C18.8072 14.8765 18.6508 14.5181 18.4424 14.1848C18.6188 14.1515 18.7992 14.1306 18.9836 14.1223C19.168 14.114 19.3564 14.1098 19.5489 14.1098C20.7035 14.1098 21.6337 14.3306 22.3393 14.7723C23.0449 15.214 23.3977 15.8015 23.3977 16.5348V18.1098H19.0678ZM8.12276 16.1098H15.6039C15.4435 15.7765 14.9985 15.4848 14.2688 15.2348C13.5391 14.9848 12.7333 14.8598 11.8513 14.8598C10.9693 14.8598 10.1634 14.9848 9.43376 15.2348C8.70409 15.4848 8.26709 15.7765 8.12276 16.1098ZM4.15369 13.1098C3.62448 13.1098 3.17144 12.914 2.79458 12.5223C2.41772 12.1306 2.22929 11.6598 2.22929 11.1098C2.22929 10.5431 2.41772 10.0681 2.79458 9.6848C3.17144 9.30147 3.62448 9.1098 4.15369 9.1098C4.69893 9.1098 5.15598 9.30147 5.52482 9.6848C5.89367 10.0681 6.07809 10.5431 6.07809 11.1098C6.07809 11.6598 5.89367 12.1306 5.52482 12.5223C5.15598 12.914 4.69893 13.1098 4.15369 13.1098ZM19.5489 13.1098C19.0197 13.1098 18.5666 12.914 18.1898 12.5223C17.8129 12.1306 17.6245 11.6598 17.6245 11.1098C17.6245 10.5431 17.8129 10.0681 18.1898 9.6848C18.5666 9.30147 19.0197 9.1098 19.5489 9.1098C20.0941 9.1098 20.5512 9.30147 20.92 9.6848C21.2889 10.0681 21.4733 10.5431 21.4733 11.1098C21.4733 11.6598 21.2889 12.1306 20.92 12.5223C20.5512 12.914 20.0941 13.1098 19.5489 13.1098ZM11.8513 12.1098C11.0495 12.1098 10.3679 11.8181 9.80661 11.2348C9.24533 10.6515 8.96469 9.94314 8.96469 9.1098C8.96469 8.2598 9.24533 7.5473 9.80661 6.9723C10.3679 6.3973 11.0495 6.1098 11.8513 6.1098C12.6692 6.1098 13.3547 6.3973 13.908 6.9723C14.4613 7.5473 14.7379 8.2598 14.7379 9.1098C14.7379 9.94314 14.4613 10.6515 13.908 11.2348C13.3547 11.8181 12.6692 12.1098 11.8513 12.1098ZM11.8513 10.1098C12.1239 10.1098 12.3524 10.014 12.5369 9.8223C12.7213 9.63064 12.8135 9.39314 12.8135 9.1098C12.8135 8.82647 12.7213 8.58897 12.5369 8.3973C12.3524 8.20564 12.1239 8.1098 11.8513 8.1098C11.5787 8.1098 11.3501 8.20564 11.1657 8.3973C10.9813 8.58897 10.8891 8.82647 10.8891 9.1098C10.8891 9.39314 10.9813 9.63064 11.1657 9.8223C11.3501 10.014 11.5787 10.1098 11.8513 10.1098Z" fill="white"/>
</g>
<defs>
<clipPath id="clip0_1_63">
<rect width="23.0928" height="24" fill="white" transform="translate(0.304886 0.109802)"/>
</clipPath>
</defs>
</svg>
