<svg width="44" height="45" viewBox="0 0 44 45" fill="none" xmlns="http://www.w3.org/2000/svg">
<path d="M4.51687 39.7514V40.2514H5.01687H23.7669H24.2669V39.7514V5.08478V4.58478H23.7669H5.01687H4.51687V5.08478V39.7514ZM32.6002 5.61665C33.3921 5.72048 34.0811 6.07885 34.6825 6.70426C35.4077 7.45846 35.7669 8.3539 35.7669 9.41812V35.4181C35.7669 36.4823 35.4077 37.3778 34.6825 38.132C34.0811 38.7574 33.3921 39.1158 32.6002 39.2196V5.61665ZM5.01687 43.5848C4.01119 43.5848 3.1592 43.2189 2.43458 42.4653C1.70938 41.7111 1.3502 40.8157 1.3502 39.7514V5.08478C1.3502 4.02057 1.70938 3.12513 2.43458 2.37092C3.1592 1.61732 4.01119 1.25145 5.01687 1.25145H23.7669C24.7726 1.25145 25.6245 1.61732 26.3492 2.37092C27.0744 3.12513 27.4335 4.02057 27.4335 5.08478V39.7514C27.4335 40.8157 27.0744 41.7111 26.3492 42.4653C25.6245 43.2189 24.7725 43.5848 23.7669 43.5848H5.01687ZM40.9335 9.96221C41.4476 10.0568 41.8944 10.3046 42.2867 10.7126C42.8018 11.2484 43.0585 11.8903 43.0585 12.6681V32.1681C43.0585 32.946 42.8018 33.5879 42.2867 34.1236C41.8944 34.5316 41.4476 34.7794 40.9335 34.874V9.96221Z" fill="black" stroke="black"/>
</svg>
