<svg width="25" height="25" viewBox="0 0 25 25" fill="none" xmlns="http://www.w3.org/2000/svg">
<path d="M10.6335 11.9745C9.53353 11.9745 8.59186 11.5828 7.80853 10.7995C7.0252 10.0162 6.63353 9.07449 6.63353 7.97449C6.63353 6.87449 7.0252 5.93282 7.80853 5.14949C8.59186 4.36615 9.53353 3.97449 10.6335 3.97449C11.7335 3.97449 12.6752 4.36615 13.4585 5.14949C14.2419 5.93282 14.6335 6.87449 14.6335 7.97449C14.6335 9.07449 14.2419 10.0162 13.4585 10.7995C12.6752 11.5828 11.7335 11.9745 10.6335 11.9745ZM2.63353 19.9745V17.1745C2.63353 16.6245 2.7752 16.1078 3.05853 15.6245C3.34186 15.1412 3.73353 14.7745 4.23353 14.5245C5.08353 14.0912 6.04186 13.7245 7.10853 13.4245C8.1752 13.1245 9.3502 12.9745 10.6335 12.9745H10.9835C11.0835 12.9745 11.1835 12.9912 11.2835 13.0245C11.1502 13.3245 11.0377 13.637 10.946 13.962C10.8544 14.287 10.7835 14.6245 10.7335 14.9745H10.6335C9.4502 14.9745 8.3877 15.1245 7.44603 15.4245C6.50436 15.7245 5.73353 16.0245 5.13353 16.3245C4.98353 16.4078 4.8627 16.5245 4.77103 16.6745C4.67936 16.8245 4.63353 16.9912 4.63353 17.1745V17.9745H10.9335C11.0335 18.3245 11.1669 18.6703 11.3335 19.012C11.5002 19.3537 11.6835 19.6745 11.8835 19.9745H2.63353ZM16.6335 20.9745L16.3335 19.4745C16.1335 19.3912 15.946 19.3037 15.771 19.212C15.596 19.1203 15.4169 19.0078 15.2335 18.8745L13.7835 19.3245L12.7835 17.6245L13.9335 16.6245C13.9002 16.3912 13.8835 16.1745 13.8835 15.9745C13.8835 15.7745 13.9002 15.5578 13.9335 15.3245L12.7835 14.3245L13.7835 12.6245L15.2335 13.0745C15.4169 12.9412 15.596 12.8287 15.771 12.737C15.946 12.6453 16.1335 12.5578 16.3335 12.4745L16.6335 10.9745H18.6335L18.9335 12.4745C19.1335 12.5578 19.321 12.6495 19.496 12.7495C19.671 12.8495 19.8502 12.9745 20.0335 13.1245L21.4835 12.6245L22.4835 14.3745L21.3335 15.3745C21.3669 15.5745 21.3835 15.7828 21.3835 15.9995C21.3835 16.2162 21.3669 16.4245 21.3335 16.6245L22.4835 17.6245L21.4835 19.3245L20.0335 18.8745C19.8502 19.0078 19.671 19.1203 19.496 19.212C19.321 19.3037 19.1335 19.3912 18.9335 19.4745L18.6335 20.9745H16.6335ZM17.6335 17.9745C18.1835 17.9745 18.6544 17.7787 19.046 17.387C19.4377 16.9953 19.6335 16.5245 19.6335 15.9745C19.6335 15.4245 19.4377 14.9537 19.046 14.562C18.6544 14.1703 18.1835 13.9745 17.6335 13.9745C17.0835 13.9745 16.6127 14.1703 16.221 14.562C15.8294 14.9537 15.6335 15.4245 15.6335 15.9745C15.6335 16.5245 15.8294 16.9953 16.221 17.387C16.6127 17.7787 17.0835 17.9745 17.6335 17.9745ZM10.6335 9.97449C11.1835 9.97449 11.6544 9.77865 12.046 9.38699C12.4377 8.99532 12.6335 8.52449 12.6335 7.97449C12.6335 7.42449 12.4377 6.95365 12.046 6.56199C11.6544 6.17032 11.1835 5.97449 10.6335 5.97449C10.0835 5.97449 9.6127 6.17032 9.22103 6.56199C8.82936 6.95365 8.63353 7.42449 8.63353 7.97449C8.63353 8.52449 8.82936 8.99532 9.22103 9.38699C9.6127 9.77865 10.0835 9.97449 10.6335 9.97449Z" fill="black"/>
</svg>
