<svg width="21" height="21" viewBox="0 0 21 21" fill="none" xmlns="http://www.w3.org/2000/svg">
<path d="M6.51432 15.0558C6.27821 15.0558 6.08029 14.9759 5.92057 14.8162C5.76085 14.6565 5.68099 14.4586 5.68099 14.2225V12.5558H16.5143V5.05581H18.181C18.4171 5.05581 18.615 5.13567 18.7747 5.29539C18.9345 5.45511 19.0143 5.65303 19.0143 5.88914V18.3891L15.681 15.0558H6.51432ZM2.34766 14.2225V2.55581C2.34766 2.3197 2.42752 2.12178 2.58724 1.96206C2.74696 1.80233 2.94488 1.72247 3.18099 1.72247H14.0143C14.2504 1.72247 14.4483 1.80233 14.6081 1.96206C14.7678 2.12178 14.8477 2.3197 14.8477 2.55581V10.0558C14.8477 10.2919 14.7678 10.4898 14.6081 10.6496C14.4483 10.8093 14.2504 10.8891 14.0143 10.8891H5.68099L2.34766 14.2225ZM13.181 9.22247V3.38914H4.01432V9.22247H13.181Z" fill="#979797"/>
</svg>
