<svg width="25" height="25" viewBox="0 0 25 25" fill="none" xmlns="http://www.w3.org/2000/svg">
<path d="M16.5585 14.4745C15.7252 14.4745 15.0169 14.1828 14.4335 13.5995C13.8502 13.0162 13.5585 12.3078 13.5585 11.4745C13.5585 10.6412 13.8502 9.93282 14.4335 9.34949C15.0169 8.76615 15.7252 8.47449 16.5585 8.47449C17.3919 8.47449 18.1002 8.76615 18.6835 9.34949C19.2669 9.93282 19.5585 10.6412 19.5585 11.4745C19.5585 12.3078 19.2669 13.0162 18.6835 13.5995C18.1002 14.1828 17.3919 14.4745 16.5585 14.4745ZM10.5585 20.4745V18.5745C10.5585 18.2245 10.6419 17.8912 10.8085 17.5745C10.9752 17.2578 11.2085 17.0078 11.5085 16.8245C12.2585 16.3745 13.0544 16.037 13.896 15.812C14.7377 15.587 15.6252 15.4745 16.5585 15.4745C17.4919 15.4745 18.3794 15.587 19.221 15.812C20.0627 16.037 20.8585 16.3745 21.6085 16.8245C21.9085 17.0078 22.1419 17.2578 22.3085 17.5745C22.4752 17.8912 22.5585 18.2245 22.5585 18.5745V20.4745H10.5585ZM12.7085 18.4745H20.4085C19.8252 18.1412 19.2085 17.8912 18.5585 17.7245C17.9085 17.5578 17.2419 17.4745 16.5585 17.4745C15.8752 17.4745 15.2085 17.5578 14.5585 17.7245C13.9085 17.8912 13.2919 18.1412 12.7085 18.4745ZM16.5585 12.4745C16.8419 12.4745 17.0794 12.3787 17.271 12.187C17.4627 11.9953 17.5585 11.7578 17.5585 11.4745C17.5585 11.1912 17.4627 10.9537 17.271 10.762C17.0794 10.5703 16.8419 10.4745 16.5585 10.4745C16.2752 10.4745 16.0377 10.5703 15.846 10.762C15.6544 10.9537 15.5585 11.1912 15.5585 11.4745C15.5585 11.7578 15.6544 11.9953 15.846 12.187C16.0377 12.3787 16.2752 12.4745 16.5585 12.4745ZM3.55853 14.4745V12.4745H11.5585V14.4745H3.55853ZM3.55853 6.47449V4.47449H15.5585V6.47449H3.55853ZM11.6585 10.4745H3.55853V8.47449H12.5585C12.3252 8.75782 12.1377 9.06615 11.996 9.39949C11.8544 9.73282 11.7419 10.0912 11.6585 10.4745Z" fill="black"/>
</svg>
