<svg width="21" height="21" viewBox="0 0 21 21" fill="none" xmlns="http://www.w3.org/2000/svg">
<path d="M10.681 14.013C12.056 12.9019 13.0942 11.8325 13.7956 10.8047C14.497 9.7769 14.8477 8.81163 14.8477 7.90885C14.8477 7.13107 14.7053 6.46788 14.4206 5.91927C14.1359 5.37065 13.7852 4.92621 13.3685 4.58593C12.9518 4.24565 12.5004 3.99913 12.0143 3.84635C11.5282 3.69357 11.0838 3.61718 10.681 3.61718C10.2782 3.61718 9.83377 3.69357 9.34766 3.84635C8.86155 3.99913 8.41016 4.24565 7.99349 4.58593C7.57682 4.92621 7.22613 5.37065 6.94141 5.91927C6.65668 6.46788 6.51432 7.13107 6.51432 7.90885C6.51432 8.81163 6.86502 9.7769 7.56641 10.8047C8.2678 11.8325 9.30599 12.9019 10.681 14.013ZM10.681 16.1172C8.72266 14.6727 7.26085 13.27 6.29557 11.9088C5.3303 10.5477 4.84766 9.2144 4.84766 7.90885C4.84766 6.92274 5.02474 6.05815 5.37891 5.3151C5.73307 4.57204 6.18793 3.95052 6.74349 3.45052C7.29905 2.95052 7.92405 2.57552 8.61849 2.32552C9.31293 2.07552 10.0004 1.95052 10.681 1.95052C11.3615 1.95052 12.049 2.07552 12.7435 2.32552C13.4379 2.57552 14.0629 2.95052 14.6185 3.45052C15.174 3.95052 15.6289 4.57204 15.9831 5.3151C16.3372 6.05815 16.5143 6.92274 16.5143 7.90885C16.5143 9.2144 16.0317 10.5477 15.0664 11.9088C14.1011 13.27 12.6393 14.6727 10.681 16.1172ZM10.681 9.45052C11.1393 9.45052 11.5317 9.28732 11.8581 8.96093C12.1845 8.63454 12.3477 8.24218 12.3477 7.78385C12.3477 7.32552 12.1845 6.93315 11.8581 6.60677C11.5317 6.28038 11.1393 6.11718 10.681 6.11718C10.2227 6.11718 9.8303 6.28038 9.50391 6.60677C9.17752 6.93315 9.01432 7.32552 9.01432 7.78385C9.01432 8.24218 9.17752 8.63454 9.50391 8.96093C9.8303 9.28732 10.2227 9.45052 10.681 9.45052ZM4.84766 18.6172V16.9505H16.5143V18.6172H4.84766Z" fill="#979797"/>
</svg>
