<svg width="24" height="24" viewBox="0 0 24 24" fill="none" xmlns="http://www.w3.org/2000/svg">
<path d="M19.601 21L13.301 14.7C12.801 15.1 12.226 15.4167 11.576 15.65C10.926 15.8833 10.2343 16 9.50098 16C7.68431 16 6.14681 15.3708 4.88848 14.1125C3.63014 12.8542 3.00098 11.3167 3.00098 9.5C3.00098 7.68333 3.63014 6.14583 4.88848 4.8875C6.14681 3.62917 7.68431 3 9.50098 3C11.3176 3 12.8551 3.62917 14.1135 4.8875C15.3718 6.14583 16.001 7.68333 16.001 9.5C16.001 10.2333 15.8843 10.925 15.651 11.575C15.4176 12.225 15.101 12.8 14.701 13.3L21.001 19.6L19.601 21ZM9.50098 14C10.751 14 11.8135 13.5625 12.6885 12.6875C13.5635 11.8125 14.001 10.75 14.001 9.5C14.001 8.25 13.5635 7.1875 12.6885 6.3125C11.8135 5.4375 10.751 5 9.50098 5C8.25098 5 7.18848 5.4375 6.31348 6.3125C5.43848 7.1875 5.00098 8.25 5.00098 9.5C5.00098 10.75 5.43848 11.8125 6.31348 12.6875C7.18848 13.5625 8.25098 14 9.50098 14Z" fill="black"/>
</svg>
