<svg width="25" height="25" viewBox="0 0 25 25" fill="none" xmlns="http://www.w3.org/2000/svg">
<path d="M20.2812 21.0658L13.9812 14.7658C13.4812 15.1658 12.9062 15.4824 12.2562 15.7158C11.6062 15.9491 10.9145 16.0658 10.1812 16.0658C8.36449 16.0658 6.82699 15.4366 5.56865 14.1783C4.31032 12.9199 3.68115 11.3824 3.68115 9.56577C3.68115 7.7491 4.31032 6.2116 5.56865 4.95327C6.82699 3.69493 8.36449 3.06577 10.1812 3.06577C11.9978 3.06577 13.5353 3.69493 14.7937 4.95327C16.052 6.2116 16.6812 7.7491 16.6812 9.56577C16.6812 10.2991 16.5645 10.9908 16.3312 11.6408C16.0978 12.2908 15.7812 12.8658 15.3812 13.3658L21.6812 19.6658L20.2812 21.0658ZM10.1812 14.0658C11.4312 14.0658 12.4937 13.6283 13.3687 12.7533C14.2437 11.8783 14.6812 10.8158 14.6812 9.56577C14.6812 8.31577 14.2437 7.25327 13.3687 6.37827C12.4937 5.50327 11.4312 5.06577 10.1812 5.06577C8.93115 5.06577 7.86865 5.50327 6.99365 6.37827C6.11865 7.25327 5.68115 8.31577 5.68115 9.56577C5.68115 10.8158 6.11865 11.8783 6.99365 12.7533C7.86865 13.6283 8.93115 14.0658 10.1812 14.0658Z" fill="#979797"/>
</svg>
