<svg width="21" height="21" viewBox="0 0 21 21" fill="none" xmlns="http://www.w3.org/2000/svg">
<path d="M9.18221 14.616L16.2322 7.56599L14.8322 6.16599L9.18221 11.816L6.33221 8.96599L4.93221 10.366L9.18221 14.616ZM10.5822 20.016C9.19888 20.016 7.89888 19.7535 6.68221 19.2285C5.46555 18.7035 4.40721 17.991 3.50721 17.091C2.60721 16.191 1.89471 15.1327 1.36971 13.916C0.844714 12.6993 0.582214 11.3993 0.582214 10.016C0.582214 8.63266 0.844714 7.33266 1.36971 6.11599C1.89471 4.89932 2.60721 3.84099 3.50721 2.94099C4.40721 2.04099 5.46555 1.32849 6.68221 0.803491C7.89888 0.278491 9.19888 0.0159912 10.5822 0.0159912C11.9655 0.0159912 13.2655 0.278491 14.4822 0.803491C15.6989 1.32849 16.7572 2.04099 17.6572 2.94099C18.5572 3.84099 19.2697 4.89932 19.7947 6.11599C20.3197 7.33266 20.5822 8.63266 20.5822 10.016C20.5822 11.3993 20.3197 12.6993 19.7947 13.916C19.2697 15.1327 18.5572 16.191 17.6572 17.091C16.7572 17.991 15.6989 18.7035 14.4822 19.2285C13.2655 19.7535 11.9655 20.016 10.5822 20.016ZM10.5822 18.016C12.8155 18.016 14.7072 17.241 16.2572 15.691C17.8072 14.141 18.5822 12.2493 18.5822 10.016C18.5822 7.78266 17.8072 5.89099 16.2572 4.34099C14.7072 2.79099 12.8155 2.01599 10.5822 2.01599C8.34888 2.01599 6.45721 2.79099 4.90721 4.34099C3.35721 5.89099 2.58221 7.78266 2.58221 10.016C2.58221 12.2493 3.35721 14.141 4.90721 15.691C6.45721 17.241 8.34888 18.016 10.5822 18.016Z" fill="#808080"/>
</svg>
