<svg width="21" height="21" viewBox="0 0 21 21" fill="none" xmlns="http://www.w3.org/2000/svg">
<path d="M6.53491 16.7186C5.98491 16.7186 5.51408 16.5228 5.12241 16.1311C4.73075 15.7395 4.53491 15.2686 4.53491 14.7186V12.7186H6.53491V14.7186H18.5349V4.71863H6.53491V6.71863H4.53491V2.71863C4.53491 2.16863 4.73075 1.69779 5.12241 1.30613C5.51408 0.914461 5.98491 0.718628 6.53491 0.718628H18.5349C19.0849 0.718628 19.5557 0.914461 19.9474 1.30613C20.3391 1.69779 20.5349 2.16863 20.5349 2.71863V14.7186C20.5349 15.2686 20.3391 15.7395 19.9474 16.1311C19.5557 16.5228 19.0849 16.7186 18.5349 16.7186H6.53491ZM2.53491 20.7186C1.98491 20.7186 1.51408 20.5228 1.12241 20.1311C0.730745 19.7395 0.534912 19.2686 0.534912 18.7186V4.71863H2.53491V18.7186H16.5349V20.7186H2.53491ZM11.5349 13.7186L10.1349 12.3186L11.7099 10.7186H4.53491V8.71863H11.7099L10.1349 7.11863L11.5349 5.71863L15.5349 9.71863L11.5349 13.7186Z" fill="#808080"/>
</svg>
