<svg width="27" height="27" viewBox="0 0 27 27" fill="none" xmlns="http://www.w3.org/2000/svg">
<path d="M19.2566 14.6324L14.0691 9.56989C13.4233 8.94489 12.8764 8.25218 12.4285 7.49176C11.9805 6.73134 11.7566 5.90322 11.7566 5.00739C11.7566 3.86155 12.1576 2.88759 12.9597 2.08551C13.7618 1.28343 14.7358 0.882385 15.8816 0.882385C16.5483 0.882385 17.1733 1.02301 17.7566 1.30426C18.3399 1.58551 18.8399 1.96572 19.2566 2.44489C19.6733 1.96572 20.1733 1.58551 20.7566 1.30426C21.3399 1.02301 21.9649 0.882385 22.6316 0.882385C23.7774 0.882385 24.7514 1.28343 25.5535 2.08551C26.3556 2.88759 26.7566 3.86155 26.7566 5.00739C26.7566 5.90322 26.5378 6.73134 26.1003 7.49176C25.6628 8.25218 25.1212 8.94489 24.4753 9.56989L19.2566 14.6324ZM19.2566 11.1324L22.6628 7.78864C23.0587 7.3928 23.4233 6.97093 23.7566 6.52301C24.0899 6.07509 24.2566 5.56989 24.2566 5.00739C24.2566 4.54905 24.1003 4.16364 23.7878 3.85114C23.4753 3.53864 23.0899 3.38239 22.6316 3.38239C22.3399 3.38239 22.0639 3.43968 21.8035 3.55426C21.5431 3.66884 21.3191 3.84072 21.1316 4.06989L19.2566 6.31989L17.3816 4.06989C17.1941 3.84072 16.9701 3.66884 16.7097 3.55426C16.4493 3.43968 16.1733 3.38239 15.8816 3.38239C15.4233 3.38239 15.0378 3.53864 14.7253 3.85114C14.4128 4.16364 14.2566 4.54905 14.2566 5.00739C14.2566 5.56989 14.4233 6.07509 14.7566 6.52301C15.0899 6.97093 15.4545 7.3928 15.8503 7.78864L19.2566 11.1324ZM8.00659 21.5074L16.6941 23.8824L24.1316 21.5699C24.0274 21.3824 23.8764 21.2209 23.6785 21.0855C23.4806 20.9501 23.2566 20.8824 23.0066 20.8824H16.6941C16.1316 20.8824 15.6837 20.8616 15.3503 20.8199C15.017 20.7782 14.6733 20.6949 14.3191 20.5699L11.4128 19.6011L12.1003 17.1636L14.6316 18.0074C14.9858 18.1116 15.4024 18.1949 15.8816 18.2574C16.3608 18.3199 17.0691 18.3616 18.0066 18.3824C18.0066 18.1532 17.9389 17.9345 17.8035 17.7261C17.6681 17.5178 17.5066 17.3824 17.3191 17.3199L10.0066 14.6324H8.00659V21.5074ZM0.506592 25.8824V12.1324H10.0066C10.1524 12.1324 10.2983 12.148 10.4441 12.1793C10.5899 12.2105 10.7253 12.247 10.8503 12.2886L18.1941 15.0074C18.8816 15.2574 19.4389 15.6949 19.866 16.3199C20.2931 16.9449 20.5066 17.6324 20.5066 18.3824H23.0066C24.0483 18.3824 24.9337 18.7261 25.6628 19.4136C26.392 20.1011 26.7566 21.0074 26.7566 22.1324V23.3824L16.7566 26.5074L8.00659 24.0699V25.8824H0.506592ZM3.00659 23.3824H5.50659V14.6324H3.00659V23.3824Z" fill="black"/>
</svg>
