<svg width="21" height="21" viewBox="0 0 21 21" fill="none" xmlns="http://www.w3.org/2000/svg">
<path d="M4.55853 12.9745H12.5585V10.9745H4.55853V12.9745ZM4.55853 9.97449H16.5585V7.97449H4.55853V9.97449ZM4.55853 6.97449H16.5585V4.97449H4.55853V6.97449ZM0.558533 20.9745V2.97449C0.558533 2.42449 0.754366 1.95365 1.14603 1.56199C1.5377 1.17032 2.00853 0.974487 2.55853 0.974487H18.5585C19.1085 0.974487 19.5794 1.17032 19.971 1.56199C20.3627 1.95365 20.5585 2.42449 20.5585 2.97449V14.9745C20.5585 15.5245 20.3627 15.9953 19.971 16.387C19.5794 16.7787 19.1085 16.9745 18.5585 16.9745H4.55853L0.558533 20.9745ZM3.70853 14.9745H18.5585V2.97449H2.55853V16.0995L3.70853 14.9745Z" fill="black"/>
</svg>
