<svg width="19" height="19" viewBox="0 0 19 19" fill="none" xmlns="http://www.w3.org/2000/svg">
<path d="M2.5849 18.3134C1.7349 18.3134 1.13073 17.9342 0.772401 17.1759C0.414068 16.4175 0.501568 15.7134 1.0349 15.0634L6.5849 8.31335V2.31335H5.5849C5.30157 2.31335 5.06407 2.21752 4.8724 2.02585C4.68073 1.83419 4.5849 1.59669 4.5849 1.31335C4.5849 1.03002 4.68073 0.792521 4.8724 0.600854C5.06407 0.409188 5.30157 0.313354 5.5849 0.313354H13.5849C13.8682 0.313354 14.1057 0.409188 14.2974 0.600854C14.4891 0.792521 14.5849 1.03002 14.5849 1.31335C14.5849 1.59669 14.4891 1.83419 14.2974 2.02585C14.1057 2.21752 13.8682 2.31335 13.5849 2.31335H12.5849V8.31335L18.1349 15.0634C18.6682 15.7134 18.7557 16.4175 18.3974 17.1759C18.0391 17.9342 17.4349 18.3134 16.5849 18.3134H2.5849ZM2.5849 16.3134H16.5849L10.5849 9.01335V2.31335H8.5849V9.01335L2.5849 16.3134Z" fill="#808080"/>
</svg>
