<svg width="23" height="22" viewBox="0 0 23 22" fill="none" xmlns="http://www.w3.org/2000/svg">
<path d="M3.90689 18.8824C2.96939 17.9449 2.23502 16.8615 1.70377 15.6324C1.17252 14.4032 0.906891 13.1324 0.906891 11.8199C0.906891 10.5074 1.15689 9.21051 1.65689 7.92926C2.15689 6.64801 2.96939 5.44488 4.09439 4.31988C4.82356 3.59072 5.7246 2.96572 6.79752 2.44488C7.87043 1.92405 9.14127 1.51259 10.61 1.21051C12.0788 0.908425 13.7558 0.726133 15.6413 0.663633C17.5267 0.601133 19.6361 0.67405 21.9694 0.882383C22.1361 3.09072 22.1881 5.12197 22.1256 6.97613C22.0631 8.8303 21.8913 10.5022 21.61 11.9918C21.3288 13.4813 20.9329 14.7834 20.4225 15.898C19.9121 17.0126 19.2819 17.9449 18.5319 18.6949C17.4277 19.799 16.2558 20.6063 15.0163 21.1168C13.7767 21.6272 12.5111 21.8824 11.2194 21.8824C9.86522 21.8824 8.54231 21.6168 7.25064 21.0855C5.95897 20.5543 4.84439 19.8199 3.90689 18.8824ZM7.40689 18.3824C8.01106 18.7365 8.63085 18.9918 9.26627 19.148C9.90168 19.3043 10.5527 19.3824 11.2194 19.3824C12.1777 19.3824 13.1256 19.1897 14.0631 18.8043C15.0006 18.4188 15.8965 17.799 16.7506 16.9449C17.1256 16.5699 17.5058 16.0438 17.8913 15.3668C18.2767 14.6897 18.61 13.8043 18.8913 12.7105C19.1725 11.6168 19.3861 10.2938 19.5319 8.74176C19.6777 7.18967 19.6986 5.34072 19.5944 3.19488C18.5736 3.15322 17.4225 3.13759 16.1413 3.14801C14.86 3.15842 13.584 3.25738 12.3131 3.44488C11.0423 3.63238 9.83397 3.93447 8.68814 4.35113C7.54231 4.7678 6.60481 5.34072 5.87564 6.06988C4.93814 7.00738 4.29231 7.93447 3.93814 8.85113C3.58397 9.7678 3.40689 10.6532 3.40689 11.5074C3.40689 12.7366 3.64127 13.8147 4.11002 14.7418C4.57877 15.6688 4.99022 16.3199 5.34439 16.6949C6.21939 15.0282 7.37564 13.4293 8.81314 11.898C10.2506 10.3668 11.9277 9.11155 13.8444 8.13238C12.3444 9.44488 11.0371 10.9293 9.92252 12.5855C8.80793 14.2418 7.96939 16.1741 7.40689 18.3824Z" fill="black"/>
</svg>
